<svg width="48" height="48" viewBox="0 0 48 48" fill="none" xmlns="http://www.w3.org/2000/svg">
<g clip-path="url(#clip0_3074_2028)">
<path d="M38.304 0H9.696C4.338 0 0 4.338 0 9.696V38.31C0 43.662 4.338 48 9.696 48H38.31C43.662 48 48.006 43.662 48.006 38.304V9.696C48 4.338 43.662 0 38.304 0Z" fill="url(#paint0_linear_3074_2028)"/>
<path d="M23.7965 11.0277L24.7685 9.3477C25.3685 8.2977 26.7065 7.9437 27.7565 8.5437C28.8065 9.1437 29.1605 10.4817 28.5605 11.5317L19.1945 27.7437H25.9685C28.1645 27.7437 29.3945 30.3237 28.4405 32.1117H8.58048C7.36848 32.1117 6.39648 31.1397 6.39648 29.9277C6.39648 28.7157 7.36848 27.7437 8.58048 27.7437H14.1485L21.2765 15.3897L19.0505 11.5257C18.4505 10.4757 18.8045 9.1497 19.8545 8.5377C20.9045 7.9377 22.2305 8.2917 22.8425 9.3417L23.7965 11.0277ZM15.3725 34.3617L13.2725 38.0037C12.6725 39.0537 11.3345 39.4077 10.2845 38.8077C9.23448 38.2077 8.88048 36.8697 9.48048 35.8197L11.0405 33.1197C12.8045 32.5737 14.2385 32.9937 15.3725 34.3617ZM33.4565 27.7557H39.1385C40.3505 27.7557 41.3225 28.7277 41.3225 29.9397C41.3225 31.1517 40.3505 32.1237 39.1385 32.1237H35.9825L38.1125 35.8197C38.7125 36.8697 38.3585 38.1957 37.3085 38.8077C36.2585 39.4077 34.9325 39.0537 34.3205 38.0037C30.7325 31.7817 28.0385 27.1257 26.2505 24.0237C24.4205 20.8677 25.7285 17.6997 27.0185 16.6257C28.4525 19.0857 30.5945 22.7997 33.4565 27.7557Z" fill="white"/>
</g>
<defs>
<linearGradient id="paint0_linear_3074_2028" x1="24.003" y1="0" x2="24.003" y2="48" gradientUnits="userSpaceOnUse">
<stop stop-color="#18BFFB"/>
<stop offset="1" stop-color="#2072F3"/>
</linearGradient>
<clipPath id="clip0_3074_2028">
<rect width="48" height="48" fill="white"/>
</clipPath>
</defs>
</svg>
