<svg width="24" height="24" viewBox="0 0 24 24" fill="none" xmlns="http://www.w3.org/2000/svg">
<path d="M12 1.00129C9.17538 0.910335 6.43201 2.01621 4.37041 4.07684C2.30881 6.13747 1.09691 8.98499 1 11.9961C1.09691 15.0072 2.30881 17.8547 4.37041 19.9153C6.43201 21.976 9.17538 23.0819 12 22.9909C14.8246 23.0819 17.568 21.976 19.6296 19.9153C21.6912 17.8547 22.9031 15.0072 23 11.9961C22.9031 8.98499 21.6912 6.13747 19.6296 4.07684C17.568 2.01621 14.8246 0.910335 12 1.00129ZM12 21.1584C9.63111 21.2497 7.32474 20.337 5.58541 18.6199C3.84607 16.9029 2.81537 14.5213 2.71875 11.9961C2.81537 9.47092 3.84607 7.08933 5.58541 5.37228C7.32474 3.65523 9.63111 2.74251 12 2.83376C14.3689 2.74251 16.6753 3.65523 18.4146 5.37228C20.1539 7.08933 21.1846 9.47092 21.2812 11.9961C21.1846 14.5213 20.1539 16.9029 18.4146 18.6199C16.6753 20.337 14.3689 21.2497 12 21.1584Z" fill="#C3CED2"/>
<path d="M11.97 17.5611C12.5996 17.5611 13.11 17.0507 13.11 16.4211C13.11 15.7915 12.5996 15.2811 11.97 15.2811C11.3404 15.2811 10.83 15.7915 10.83 16.4211C10.83 17.0507 11.3404 17.5611 11.97 17.5611Z" fill="#C3CED2"/>
<path d="M14.595 7.12109C13.852 6.55169 12.9358 6.25511 12 6.28109C11.5483 6.25481 11.0959 6.3184 10.669 6.4682C10.242 6.618 9.84908 6.85103 9.51285 7.15377C9.17662 7.45652 8.9038 7.82298 8.7102 8.23191C8.5166 8.64085 8.40606 9.08414 8.385 9.53609V9.70109H10.245V9.55109C10.2759 9.11338 10.4767 8.7051 10.8047 8.41358C11.1327 8.12206 11.5617 7.97042 12 7.99109C12.2116 7.96552 12.4261 7.98531 12.6294 8.04915C12.8327 8.11299 13.0201 8.21942 13.1791 8.36134C13.338 8.50327 13.4649 8.67743 13.5513 8.87223C13.6377 9.06703 13.6815 9.27801 13.68 9.49109C13.68 10.0161 13.32 10.5861 12.51 11.1561C12.1087 11.3816 11.7647 11.6964 11.5046 12.0762C11.2445 12.4559 11.0753 12.8904 11.01 13.3461V13.8861H12.87V13.4961C12.8835 13.2065 13.0069 12.9329 13.215 12.7311C13.4521 12.4629 13.7132 12.2168 13.995 11.9961L14.25 11.7861C14.6676 11.5147 15.011 11.1435 15.2493 10.7062C15.4876 10.2689 15.6133 9.77913 15.615 9.28109C15.6166 8.86782 15.5258 8.45943 15.3493 8.08573C15.1728 7.71202 14.9151 7.38246 14.595 7.12109Z" fill="#C3CED2"/>
</svg>
