<svg width="24" height="24" viewBox="0 0 24 24" fill="none" xmlns="http://www.w3.org/2000/svg">
<path d="M21.67 14.2961L21.27 19.2961C21.12 20.8261 21 21.9961 18.29 21.9961H5.71001C3.00001 21.9961 2.88001 20.8261 2.73001 19.2961L2.33001 14.2961C2.25001 13.4661 2.51001 12.6961 2.98001 12.1061C2.99001 12.0961 2.99001 12.0961 3.00001 12.0861C3.55001 11.4161 4.38001 10.9961 5.31001 10.9961H18.69C19.62 10.9961 20.44 11.4161 20.98 12.0661C20.99 12.0761 21 12.0861 21 12.0961C21.49 12.6861 21.76 13.4561 21.67 14.2961Z" stroke="#007BFF" stroke-width="1.5" stroke-miterlimit="10"/>
<path d="M3.5 11.4273V6.27734C3.5 2.87734 4.35 2.02734 7.75 2.02734H9.02C10.29 2.02734 10.58 2.40734 11.06 3.04734L12.33 4.74734C12.65 5.16734 12.84 5.42734 13.69 5.42734H16.24C19.64 5.42734 20.49 6.27734 20.49 9.67734V11.4673" stroke="#007BFF" stroke-width="1.5" stroke-miterlimit="10" stroke-linecap="round" stroke-linejoin="round"/>
<path d="M9.43005 16.9961H14.5701" stroke="#007BFF" stroke-width="1.5" stroke-miterlimit="10" stroke-linecap="round" stroke-linejoin="round"/>
</svg>
