<svg width="50" height="50" viewBox="0 0 50 50" fill="none" xmlns="http://www.w3.org/2000/svg">
<path fill-rule="evenodd" clip-rule="evenodd" d="M37.5625 1C44.5 1 49 5.5 49 12.4375V37.5625C49 44.5 44.5 49 37.5625 49H12.4375C5.5 49 1 44.5 1 37.5625V12.4375C1 5.5 5.5 1 12.4375 1H37.5625Z" fill="white"/>
<path fill-rule="evenodd" clip-rule="evenodd" d="M37.5625 1C44.5 1 49 5.5 49 12.4375V37.5625C49 44.5 44.5 49 37.5625 49H12.4375C5.5 49 1 44.5 1 37.5625V12.4375C1 5.5 5.5 1 12.4375 1H37.5625Z" fill="white" stroke="#A4A4A4" stroke-opacity="0.5" stroke-width="0.5"/>
<path fill-rule="evenodd" clip-rule="evenodd" d="M20.4098 9.8764C16.5305 11.2062 13.225 14.1144 11.3838 17.7949C10.7416 19.0646 10.2791 20.4115 9.99651 21.8099C9.29431 25.2758 9.78243 28.9734 11.3752 32.1306C12.4114 34.1895 13.9015 36.0254 15.6998 37.4582C17.404 38.8136 19.3821 39.826 21.4888 40.3836C24.1434 41.0957 26.9694 41.0785 29.6412 40.4694C32.0561 39.9118 34.3426 38.7536 36.1666 37.0721C38.0934 35.2962 39.4722 32.9627 40.2 30.449C40.9963 27.7123 41.0991 24.7868 40.6027 21.9729C35.61 21.9729 30.6089 21.9729 25.6164 21.9729C25.6164 24.049 25.6164 26.1252 25.6164 28.2013C28.5108 28.2013 31.4053 28.2013 34.2998 28.2013C33.9658 30.1917 32.784 32.0104 31.1142 33.1343C30.0608 33.8464 28.8534 34.301 27.6031 34.5241C26.3528 34.7386 25.0512 34.7643 23.8009 34.5155C22.525 34.2582 21.3175 33.7262 20.2556 32.9799C18.56 31.7874 17.267 30.0458 16.6076 28.0812C15.931 26.0823 15.9225 23.8603 16.6076 21.87C17.0871 20.463 17.875 19.1675 18.9197 18.1037C20.2042 16.7826 21.8741 15.8388 23.681 15.4528C25.2224 15.1268 26.8495 15.1868 28.3567 15.6415C29.6412 16.0276 30.823 16.7396 31.7907 17.6662C32.7669 16.6882 33.7432 15.7102 34.7194 14.7322C35.2332 14.2088 35.7727 13.7026 36.2694 13.1622C34.7879 11.7895 33.041 10.6828 31.1398 9.97932C27.7144 8.70964 23.8608 8.68388 20.4098 9.8764Z" fill="white"/>
<path fill-rule="evenodd" clip-rule="evenodd" d="M20.4107 9.87349C23.8532 8.68097 27.7154 8.70673 31.1408 9.96785C33.0419 10.6713 34.7803 11.7694 36.2703 13.1507C35.7736 13.6912 35.2342 14.1973 34.7203 14.7206C33.7441 15.6987 32.7678 16.6767 31.7916 17.6547C30.8239 16.7282 29.6422 16.0247 28.3576 15.63C26.8505 15.1754 25.2234 15.1067 23.682 15.4413C21.8836 15.8274 20.2138 16.771 18.9206 18.0922C17.8759 19.1475 17.088 20.4515 16.6085 21.8584C14.8701 20.503 13.1317 19.156 11.3848 17.8006C13.2259 14.1115 16.5314 11.2032 20.4107 9.87349Z" fill="#EA4335"/>
<path fill-rule="evenodd" clip-rule="evenodd" d="M10.0058 21.8002C10.2884 20.4104 10.7509 19.0548 11.3931 17.7852C13.1315 19.1406 14.8699 20.4876 16.6169 21.843C15.9318 23.842 15.9318 26.064 16.6169 28.0543C14.8785 29.4098 13.1401 30.7653 11.4017 32.1122C9.79174 28.9637 9.30362 25.2661 10.0058 21.8002Z" fill="#FBBC05"/>
<path fill-rule="evenodd" clip-rule="evenodd" d="M25.617 21.9648C30.6095 21.9648 35.6106 21.9648 40.6033 21.9648C41.0997 24.7702 40.9885 27.6957 40.2006 30.441C39.4727 32.9546 38.094 35.2882 36.1672 37.064C34.4802 35.7514 32.7932 34.4388 31.1062 33.1262C32.776 32.0024 33.9578 30.1836 34.2918 28.1932C31.3973 28.1932 28.5028 28.1932 25.6084 28.1932C25.617 26.1171 25.617 24.041 25.617 21.9648Z" fill="#4285F4"/>
<path fill-rule="evenodd" clip-rule="evenodd" d="M11.3848 32.1204C13.1232 30.7735 14.8616 29.418 16.5999 28.0625C17.2679 30.0271 18.5524 31.7687 20.248 32.9612C21.3099 33.7075 22.5259 34.2395 23.7933 34.4968C25.0436 34.7542 26.3366 34.7199 27.5955 34.5054C28.8458 34.2823 30.0532 33.8277 31.1065 33.1156C32.7936 34.4282 34.4806 35.7408 36.1676 37.0534C34.3436 38.7435 32.0571 39.8931 29.6422 40.4507C26.9704 41.0598 24.1444 41.077 21.4897 40.3649C19.3831 39.8073 17.4049 38.8035 15.7008 37.4395C13.911 36.0153 12.421 34.1794 11.3848 32.1204Z" fill="#34A853"/>
</svg>
