<svg width="30" height="30" viewBox="0 0 30 30" fill="none" xmlns="http://www.w3.org/2000/svg">
<path d="M27.0752 13.0501L25.8502 18.2751C24.8002 22.7876 22.7252 24.6126 18.8252 24.2376C18.2002 24.1876 17.5252 24.0751 16.8002 23.9001L14.7002 23.4001C9.48772 22.1626 7.87522 19.5876 9.10022 14.3626L10.3252 9.12513C10.5752 8.06263 10.8752 7.13763 11.2502 6.37513C12.7127 3.35013 15.2002 2.53763 19.3752 3.52513L21.4627 4.01263C26.7002 5.23763 28.3002 7.82513 27.0752 13.0501Z" stroke="#0062CC" stroke-width="1.5" stroke-linecap="round" stroke-linejoin="round"/>
<path d="M18.8249 24.2375C18.0499 24.7625 17.0749 25.2 15.8874 25.5875L13.9124 26.2375C8.94994 27.8375 6.33744 26.5 4.72494 21.5375L3.12494 16.6C1.52494 11.6375 2.84994 9.0125 7.81244 7.4125L9.78744 6.7625C10.2999 6.6 10.7874 6.4625 11.2499 6.375C10.8749 7.1375 10.5749 8.0625 10.3249 9.125L9.09994 14.3625C7.87494 19.5875 9.48744 22.1625 14.6999 23.4L16.7999 23.9C17.5249 24.075 18.1999 24.1875 18.8249 24.2375Z" stroke="#0062CC" stroke-width="1.5" stroke-linecap="round" stroke-linejoin="round"/>
<path d="M15.7998 10.6621L21.8623 12.1996" stroke="#0062CC" stroke-width="1.5" stroke-linecap="round" stroke-linejoin="round"/>
<path d="M14.5752 15.5L18.2002 16.425" stroke="#0062CC" stroke-width="1.5" stroke-linecap="round" stroke-linejoin="round"/>
</svg>
