<svg width="24" height="24" viewBox="0 0 24 24" fill="none" xmlns="http://www.w3.org/2000/svg">
<path d="M17 20.9961H7C3 20.9961 2 19.9961 2 15.9961V7.99609C2 3.99609 3 2.99609 7 2.99609H17C21 2.99609 22 3.99609 22 7.99609V15.9961C22 19.9961 21 20.9961 17 20.9961Z" stroke="#007BFF" stroke-width="1.5" stroke-linecap="round" stroke-linejoin="round"/>
<path d="M14 7.99609H19" stroke="#007BFF" stroke-width="1.5" stroke-linecap="round" stroke-linejoin="round"/>
<path d="M15 11.9961H19" stroke="#007BFF" stroke-width="1.5" stroke-linecap="round" stroke-linejoin="round"/>
<path d="M17 15.9961H19" stroke="#007BFF" stroke-width="1.5" stroke-linecap="round" stroke-linejoin="round"/>
<path d="M8.49994 11.288C9.49958 11.288 10.3099 10.4776 10.3099 9.47797C10.3099 8.47833 9.49958 7.66797 8.49994 7.66797C7.50031 7.66797 6.68994 8.47833 6.68994 9.47797C6.68994 10.4776 7.50031 11.288 8.49994 11.288Z" stroke="#007BFF" stroke-width="1.5" stroke-linecap="round" stroke-linejoin="round"/>
<path d="M12 16.3278C11.86 14.8778 10.71 13.7378 9.26 13.6078C8.76 13.5578 8.25 13.5578 7.74 13.6078C6.29 13.7478 5.14 14.8778 5 16.3278" stroke="#007BFF" stroke-width="1.5" stroke-linecap="round" stroke-linejoin="round"/>
</svg>
