<svg width="1043" height="202" viewBox="0 0 1043 202" fill="none" xmlns="http://www.w3.org/2000/svg">
<path d="M574.541 0.566537C469.772 -2.76541 367.516 8.98318 281.894 25.7297C197.528 42.2506 124.232 63.5786 67.5094 88.117C38.7293 100.577 13.3598 114.252 3.90606 129.142C-4.88951 142.921 0.555364 157.741 26.5232 169.767C52.4911 181.793 93.2977 188.822 136.199 193.559C186.698 199.147 240.908 201.629 294.818 201.959C401.262 202.601 508.724 195.711 608.706 185.507C708.688 175.303 798.678 161.403 882.086 143.684C958.793 127.406 1035.44 105.714 1042.5 76.5766C1045.73 63.2315 1033.41 49.7822 1001.81 39.769C970.222 29.7558 927.381 24.4629 884.181 20.8706C777.437 12.0028 662.317 12.4366 553.479 17.3825C444.642 22.3283 330 32.8969 222.06 44.1769C195.913 46.9015 169.885 49.7128 143.857 52.5068C140.566 52.8539 134.643 54.0339 137.694 55.1966C140.746 56.3593 149.362 55.6478 152.952 55.266C255.208 44.3331 357.883 33.4175 464.088 26.1462C570.293 18.8749 677.335 15.4909 784.138 19.6038C870.299 22.9184 979.795 30.7623 1010.79 57.7303C1024.97 70.0689 1020.84 83.6917 1004.98 95.718C988.232 108.438 957.537 119.302 923.372 128.465C889.207 137.628 848.28 146.114 807.593 153.559C766.906 161.003 722.629 167.91 677.694 173.706C587.226 185.386 490.355 193.525 391.868 196.822C339.574 198.575 286.321 198.783 234.266 196.336C186.997 194.115 139.071 189.915 98.9819 182.088C60.0301 174.505 33.7631 163.294 25.6856 149.845C17.608 136.396 27.9592 121.749 47.6445 108.976C67.7487 95.9089 96.6484 83.8479 127.403 72.7067C158.158 61.5655 192.083 51.4829 229.24 42.3027C302.955 24.0637 391.689 8.13284 489.278 4.33233C513.092 3.39522 537.324 3.23904 561.198 4.00261C566.403 4.1588 572.686 3.91584 576.635 2.80519C579.567 1.9722 579.507 0.722722 574.541 0.566537Z" fill="#007BFF" fill-opacity="0.71"/>
</svg>
